<?xml version="1.0" encoding="utf-8"?>
<!-- Generator: Adobe Illustrator 16.0.0, SVG Export Plug-In . SVG Version: 6.00 Build 0)  -->
<!DOCTYPE svg PUBLIC "-//W3C//DTD SVG 1.1//EN" "http://www.w3.org/Graphics/SVG/1.1/DTD/svg11.dtd">
<svg version="1.1" id="Capa_1" xmlns="http://www.w3.org/2000/svg" xmlns:xlink="http://www.w3.org/1999/xlink" x="0px" y="0px"
	 width="512px" height="512px" viewBox="0 0 512 512" enable-background="new 0 0 512 512" xml:space="preserve">
<g>
	<path fill="#EFE8E8" d="M510.879,194.994l-47.644-77.667c-1.016-1.656-2.573-2.771-4.304-3.273l-99.377-49.628
		c-1.04-0.52-2.188-0.79-3.352-0.79H246.43c-4.142,0-7.5,3.357-7.5,7.5c0,4.143,3.358,7.5,7.5,7.5h108.006l85.329,42.612
		l-85.329,42.613H157.274l-85.33-42.613l85.33-42.612h59.167c4.142,0,7.5-3.357,7.5-7.5c0-4.144-3.358-7.5-7.5-7.5h-60.936
		c-1.163,0-2.31,0.271-3.351,0.79L51.806,114.539c-2.056,1.026-2.96,2.687-3.042,2.788L1.098,195.03
		c-1.738,2.824-1.379,6.516,0.839,8.962l125.337,138.109c2.778,3.063,7.522,3.302,10.594,0.514
		c3.067-2.783,3.297-7.526,0.513-10.595L32.42,215.261l94.188,31.719l97.562,179.568l-65.609-72.294
		c-2.785-3.068-7.527-3.3-10.594-0.515c-3.067,2.783-3.297,7.526-0.513,10.595l107.542,118.498c2.99,3.284,8.221,3.282,11.198-0.102
		l243.961-278.841C512.31,201.425,512.611,197.78,510.879,194.994L510.879,194.994z M453.976,130.919l39.213,63.924l-55.063,18.5
		c-3.927,1.319-6.04,5.571-4.721,9.498c1.053,3.135,3.976,5.113,7.108,5.113c0.792,0,1.598-0.126,2.39-0.393l37.685-12.662
		L293.865,428.321l91.363-181.382l27.688-9.302c3.928-1.319,6.041-5.571,4.722-9.498c-1.319-3.928-5.574-6.043-9.498-4.721
		l-23.535,7.907l-19.183-56.183L453.976,130.919z M350.839,178.862l18.591,54.45H142.279l18.592-54.45H350.839z M57.956,131.031
		l88.333,44.112l-19.182,56.178L18.807,194.848L57.956,131.031z M367.741,248.313L260.297,461.62L144.404,248.313H367.741z"/>
	<path fill="#EFE8E8" d="M454.411,49.532c4.143,0,7.5-3.357,7.5-7.5v-7.813c0-4.143-3.357-7.5-7.5-7.5c-4.144,0-7.5,3.357-7.5,7.5
		v7.813C446.911,46.174,450.268,49.532,454.411,49.532z"/>
	<path fill="#EFE8E8" d="M454.411,90.445c4.143,0,7.5-3.357,7.5-7.5v-7.813c0-4.144-3.357-7.5-7.5-7.5c-4.144,0-7.5,3.357-7.5,7.5
		v7.813C446.911,87.087,450.268,90.445,454.411,90.445z"/>
	<path fill="#EFE8E8" d="M470.96,66.081h7.813c4.144,0,7.501-3.357,7.501-7.5s-3.357-7.5-7.501-7.5h-7.813
		c-4.144,0-7.501,3.357-7.501,7.5S466.817,66.081,470.96,66.081z"/>
	<path fill="#EFE8E8" d="M430.046,66.081h7.813c4.144,0,7.5-3.357,7.5-7.5s-3.356-7.5-7.5-7.5h-7.813c-4.143,0-7.5,3.357-7.5,7.5
		S425.904,66.081,430.046,66.081z"/>
	<path fill="#EFE8E8" d="M46.75,62.086c4.142,0,7.5-3.357,7.5-7.5v-7.813c0-4.143-3.358-7.5-7.5-7.5s-7.5,3.357-7.5,7.5v7.813
		C39.25,58.729,42.607,62.086,46.75,62.086z"/>
	<path fill="#EFE8E8" d="M46.75,103c4.142,0,7.5-3.357,7.5-7.5v-7.813c0-4.143-3.358-7.5-7.5-7.5s-7.5,3.357-7.5,7.5V95.5
		C39.25,99.643,42.607,103,46.75,103z"/>
	<path fill="#EFE8E8" d="M63.299,78.636h7.813c4.143,0,7.5-3.357,7.5-7.5c0-4.144-3.358-7.5-7.5-7.5h-7.813
		c-4.142,0-7.5,3.357-7.5,7.5C55.799,75.279,59.156,78.636,63.299,78.636z"/>
	<path fill="#EFE8E8" d="M22.386,78.636h7.813c4.142,0,7.5-3.357,7.5-7.5c0-4.144-3.358-7.5-7.5-7.5h-7.813
		c-4.142,0-7.5,3.357-7.5,7.5C14.886,75.279,18.244,78.636,22.386,78.636z"/>
	<path fill="#EFE8E8" d="M79.52,377.148c-4.143,0-7.5,3.357-7.5,7.5v7.813c0,4.143,3.358,7.5,7.5,7.5c4.142,0,7.5-3.357,7.5-7.5
		v-7.813C87.02,380.506,83.662,377.148,79.52,377.148z"/>
	<path fill="#EFE8E8" d="M79.52,418.061c-4.143,0-7.5,3.357-7.5,7.5v7.813c0,4.144,3.358,7.5,7.5,7.5c4.142,0,7.5-3.356,7.5-7.5
		v-7.813C87.02,421.419,83.662,418.061,79.52,418.061z"/>
	<path fill="#EFE8E8" d="M103.884,401.512H96.07c-4.142,0-7.5,3.357-7.5,7.501c0,4.143,3.358,7.5,7.5,7.5h7.813
		c4.142,0,7.5-3.357,7.5-7.5C111.384,404.869,108.026,401.512,103.884,401.512z"/>
	<path fill="#EFE8E8" d="M62.97,401.512h-7.813c-4.142,0-7.5,3.357-7.5,7.501c0,4.143,3.358,7.5,7.5,7.5h7.813
		c4.142,0,7.5-3.357,7.5-7.5C70.471,404.869,67.112,401.512,62.97,401.512z"/>
	<path fill="#EFE8E8" d="M430.046,319.686c-4.143,0-7.5,3.357-7.5,7.5v7.813c0,4.144,3.357,7.5,7.5,7.5
		c4.144,0,7.501-3.356,7.501-7.5v-7.813C437.547,323.043,434.189,319.686,430.046,319.686z"/>
	<path fill="#EFE8E8" d="M430.046,360.598c-4.143,0-7.5,3.357-7.5,7.5v7.813c0,4.144,3.357,7.501,7.5,7.501
		c4.144,0,7.501-3.357,7.501-7.501v-7.813C437.547,363.955,434.189,360.598,430.046,360.598z"/>
	<path fill="#EFE8E8" d="M454.411,344.049h-7.813c-4.144,0-7.5,3.357-7.5,7.5c0,4.144,3.356,7.501,7.5,7.501h7.813
		c4.143,0,7.5-3.357,7.5-7.501C461.911,347.406,458.553,344.049,454.411,344.049z"/>
	<path fill="#EFE8E8" d="M413.497,344.049h-7.813c-4.144,0-7.501,3.357-7.501,7.5c0,4.144,3.357,7.501,7.501,7.501h7.813
		c4.144,0,7.501-3.357,7.501-7.501C420.998,347.406,417.64,344.049,413.497,344.049z"/>
</g>
</svg>
