<?xml version="1.0" encoding="utf-8"?>
<!-- Generator: Adobe Illustrator 16.0.0, SVG Export Plug-In . SVG Version: 6.00 Build 0)  -->
<!DOCTYPE svg PUBLIC "-//W3C//DTD SVG 1.1//EN" "http://www.w3.org/Graphics/SVG/1.1/DTD/svg11.dtd">
<svg version="1.1" id="Capa_1" xmlns="http://www.w3.org/2000/svg" xmlns:xlink="http://www.w3.org/1999/xlink" x="0px" y="0px"
	 width="512px" height="512px" viewBox="0 0 512 512" enable-background="new 0 0 512 512" xml:space="preserve">
<g>
	<circle fill="#F9F9F9" cx="309" cy="363.5" r="10"/>
	<path fill="#F9F9F9" d="M510,357.5l-47.671-63.561l-25.72-43.526c-0.581-0.983-1.327-1.831-2.177-2.546
		c-0.079-0.082-137.277-107.248-137.277-107.248c-0.009-0.007-0.021-0.009-0.029-0.015c-3.03-2.353-7.226-2.811-10.752-0.97l-161,84
		c-0.021,0.011-0.032,0.022-0.052,0.033c-1.115,0.59-2.125,1.389-2.963,2.381l-37.81,44.775L2.763,356.6
		c-2.761,2.896-3.53,7.158-1.955,10.838C2.382,371.115,5.999,373.5,10,373.5h254c5.51,0,10-4.49,10-10s-4.49-10-10-10h-33.42
		l118.528-47.74l24.511,47.74H354c-5.51,0-10,4.49-10,10s4.49,10,10,10h0.01H502c3.788,0,7.25-2.141,8.944-5.527
		C512.638,364.584,512.273,360.529,510,357.5L510,357.5z M287.869,167.451l29.791,73.768l-87.245-7.093L287.869,167.451z
		 M173.615,344.227l-29.061-28.47l47.447-43.296L173.615,344.227z M193.65,346.609l21.242-82.913l46.596,54.819L193.65,346.609z
		 M233.26,254.423l93.386,7.593l13.222,25.748l-58.854,22.84L233.26,254.423z M441.446,297.911l-48.814,48.813l-42.982-83.694
		l72.539,2.29L441.446,297.911z M397.719,244.538l-57.887-1.828l-25.593-63.372L397.719,244.538z M249.359,181.504l-43.436,50.407
		l-42.9-5.362L249.359,181.504z M134.141,243.095l53.097,6.637l-56.922,51.941l-24.745-24.745L134.141,243.095z M33.352,353.5
		l58.818-61.688l62.331,61.688H33.352z M414.143,353.5l38.776-38.775L482,353.5H414.143z"/>
</g>
</svg>
