<?xml version="1.0" encoding="utf-8"?>
<!-- Generator: Adobe Illustrator 16.0.0, SVG Export Plug-In . SVG Version: 6.00 Build 0)  -->
<!DOCTYPE svg PUBLIC "-//W3C//DTD SVG 1.1//EN" "http://www.w3.org/Graphics/SVG/1.1/DTD/svg11.dtd">
<svg version="1.1" id="Capa_1" xmlns="http://www.w3.org/2000/svg" xmlns:xlink="http://www.w3.org/1999/xlink" x="0px" y="0px"
	 width="612px" height="595px" viewBox="0 92.5 612 595" enable-background="new 0 92.5 612 595" xml:space="preserve">
<path fill="#EFE8E8" d="M611.857,295.721c0.071-0.418,0.112-0.826,0.133-1.255c0.02-0.5,0.01-0.979-0.031-1.479
	c-0.041-0.428-0.102-0.836-0.204-1.255c-0.112-0.489-0.265-0.959-0.448-1.428c-0.092-0.245-0.112-0.5-0.225-0.734
	c-0.082-0.173-0.225-0.306-0.316-0.479s-0.133-0.357-0.234-0.531L508.507,125.321c-0.469-0.745-1.02-1.418-1.643-2.01
	c-0.01-0.01-0.021-0.01-0.03-0.02c-0.877-0.827-1.918-1.418-3.03-1.888c-0.143-0.061-0.234-0.184-0.388-0.245
	c-0.112-0.041-0.234-0.021-0.347-0.051c-1.03-0.347-2.092-0.582-3.204-0.582h-387.69c-1.102,0-2.153,0.235-3.163,0.571
	c-0.112,0.031-0.225,0.01-0.327,0.051c-0.153,0.051-0.245,0.173-0.388,0.234c-1.061,0.439-2.061,1.01-2.928,1.786
	c-0.051,0.051-0.122,0.082-0.173,0.123c-0.632,0.591-1.194,1.275-1.663,2.02L1.51,288.548c-0.102,0.164-0.143,0.357-0.235,0.531
	s-0.235,0.306-0.316,0.479c-0.112,0.234-0.132,0.49-0.234,0.734c-0.184,0.47-0.337,0.939-0.449,1.429
	c-0.092,0.418-0.163,0.836-0.204,1.265c-0.071,0.5-0.082,0.99-0.061,1.479c0.021,0.429,0.061,0.837,0.133,1.255
	c0.082,0.49,0.214,0.969,0.377,1.449c0.132,0.398,0.275,0.786,0.459,1.173c0.092,0.184,0.123,0.388,0.225,0.571
	c0.163,0.296,0.408,0.521,0.591,0.796c0.143,0.214,0.225,0.449,0.398,0.653L297.95,667.506c0.021,0.03,0.041,0.051,0.062,0.071
	l0.051,0.071c0.031,0.041,0.082,0.051,0.112,0.092c0.836,1.01,1.877,1.775,3.01,2.388c0.306,0.163,0.592,0.306,0.908,0.438
	c1.235,0.521,2.541,0.888,3.908,0.888c1.163,0,2.336-0.204,3.499-0.622c0.174-0.062,0.286-0.204,0.46-0.275
	c0.52-0.215,0.928-0.562,1.397-0.857c0.775-0.49,1.5-1,2.102-1.663c0.143-0.153,0.357-0.225,0.489-0.388l295.869-367.286
	c0.163-0.204,0.245-0.449,0.398-0.653c0.193-0.275,0.428-0.5,0.592-0.796c0.102-0.184,0.132-0.388,0.225-0.571
	c0.184-0.388,0.326-0.765,0.459-1.173C611.633,296.69,611.775,296.221,611.857,295.721z M327.445,140.94h157.719L435.58,274.03
	L327.445,140.94z M417.195,283.774H194.814L306,146.929L417.195,283.774z M175.706,274.918L126.744,140.94h157.821L175.706,274.918z
	 M424.348,304.179L304.214,626.635L186.387,304.179H424.348z M502.171,153.724l81.283,130.06H453.721L502.171,153.724z
	 M109.737,153.856l47.472,129.917H28.546L109.737,153.856z M164.667,304.179L275.25,606.822L31.454,304.179H164.667z
	 M330.455,614.637l115.664-310.458h134.427L330.455,614.637z"/>
</svg>
