<?xml version="1.0" encoding="utf-8"?>
<!-- Generator: Adobe Illustrator 16.0.0, SVG Export Plug-In . SVG Version: 6.00 Build 0)  -->
<!DOCTYPE svg PUBLIC "-//W3C//DTD SVG 1.1//EN" "http://www.w3.org/Graphics/SVG/1.1/DTD/svg11.dtd">
<svg version="1.1" id="Icons" xmlns="http://www.w3.org/2000/svg" xmlns:xlink="http://www.w3.org/1999/xlink" x="0px" y="0px"
	 width="512px" height="512px" viewBox="0 0 512 512" enable-background="new 0 0 512 512" xml:space="preserve">
<path fill="#EFE8E8" d="M256,459.693c-2.065-0.002-4.021-0.926-5.334-2.519L15.422,171.838c-2.43-2.949-2.01-7.31,0.938-9.74
	c1.238-1.02,2.792-1.579,4.396-1.58h470.486c3.821,0.002,6.917,3.102,6.914,6.923c-0.001,1.604-0.56,3.158-1.579,4.396
	L261.334,457.175C260.021,458.768,258.064,459.691,256,459.693z M35.432,174.357L256,441.897l220.568-267.541H35.432z"/>
<path fill="#EFE8E8" d="M256,459.693c-2.812,0-5.344-1.701-6.407-4.304L132.975,170.06c-1.444-3.538,0.252-7.577,3.791-9.021
	c0.831-0.339,1.719-0.514,2.617-0.513h233.236c3.821-0.001,6.92,3.096,6.921,6.917c0,0.897-0.175,1.786-0.514,2.617L262.406,455.39
	C261.344,457.992,258.812,459.693,256,459.693z M149.684,174.357L256,434.508l106.316-260.151H149.684z"/>
<path fill="#EFE8E8" d="M491.243,174.357H20.757c-3.821-0.001-6.918-3.1-6.917-6.921c0-1.415,0.435-2.795,1.244-3.956L90.638,55.269
	c1.294-1.855,3.412-2.961,5.674-2.961h319.377c2.262,0,4.38,1.106,5.674,2.961l75.555,108.212c2.186,3.134,1.416,7.447-1.718,9.633
	C494.039,173.922,492.658,174.356,491.243,174.357z M34.027,160.519h443.945l-65.889-94.374H99.916L34.027,160.519z"/>
<path fill="#EFE8E8" d="M372.618,174.357H139.382c-3.821-0.015-6.907-3.124-6.893-6.945c0.004-1.015,0.231-2.017,0.666-2.935
	l51.297-108.212c1.14-2.408,3.562-3.947,6.227-3.958h130.643c2.665,0.01,5.087,1.549,6.228,3.958l51.297,108.212
	c1.635,3.454,0.161,7.579-3.292,9.214C374.636,174.125,373.634,174.353,372.618,174.357L372.618,174.357z M150.32,160.519H361.68
	l-44.73-94.374H195.051L150.32,160.519z"/>
</svg>
