<svg id="Capa_1" enable-background="new 0 0 512 512" height="512" viewBox="0 0 512 512" width="512" xmlns="http://www.w3.org/2000/svg"><g><g><path d="m256 0 15 55-15 36.84-21 53.16-69.62 19.34h-44.38l-29.14-35.34c.96-2 2.36-3.79 4.14-5.21l150.63-120.5c2.74-2.19 6.05-3.29 9.37-3.29z" fill="#ff9b4f"/><path d="m256 420.16 15 44.84-15 47c-3.32 0-6.63-1.1-9.37-3.29l-150.63-120.5c-1.78-1.42-3.18-3.21-4.14-5.21v-.01l36.02-37.99 37.5 2.66 54.287 15.34z" fill="#ff9b4f"/><g fill="#ff7e3d"><path d="m420.14 383c-.96 2-2.36 3.79-4.14 5.21l-150.63 120.5c-2.74 2.19-6.05 3.29-9.37 3.29v-91.84l24.333-63.827 66.297-8.673h41.703z"/><path d="m420.14 129v.01l-28.64 37.99-44.87-2.66-54.963-15.34-35.667-57.16v-91.84c3.32 0 6.63 1.1 9.37 3.29l150.63 120.5c1.78 1.42 3.18 3.21 4.14 5.21z"/><path d="m181.43 171.783-2.365 169.259-87.205 41.948c-.96-2-1.48-4.21-1.48-6.49v-241c0-2.28.52-4.5 1.48-6.5z"/></g><path d="m256 91.84-90.62 72.5v183.32l90.62 72.5 90.63-72.5v-183.32z" fill="#fa5038"/><path d="m421.62 135.5v241c0 2.28-.52 4.5-1.48 6.5l-79.836-38 1.957-178 77.879-37.99c.96 2 1.48 4.21 1.48 6.49z" fill="#fa5038"/></g><path d="m346.63 347.66v-183.32l-90.63-72.5v328.32z" fill="#f51143"/></g></svg>