<?xml version="1.0" encoding="utf-8"?>
<!-- Generator: Adobe Illustrator 16.0.0, SVG Export Plug-In . SVG Version: 6.00 Build 0)  -->
<!DOCTYPE svg PUBLIC "-//W3C//DTD SVG 1.1//EN" "http://www.w3.org/Graphics/SVG/1.1/DTD/svg11.dtd">
<svg version="1.1" id="Layer_1" xmlns="http://www.w3.org/2000/svg" xmlns:xlink="http://www.w3.org/1999/xlink" x="0px" y="0px"
	 width="261px" height="261px" viewBox="250 250 261 261" enable-background="new 250 250 261 261" xml:space="preserve">
<path fill="#FFFFFF" d="M511.14,327.827c-0.608-13.786-2.837-23.264-6.03-31.476c-3.295-8.717-8.363-16.521-15.004-23.01
	c-6.488-6.589-14.344-11.709-22.96-14.952c-8.26-3.193-17.688-5.422-31.474-6.03c-13.889-0.659-18.298-0.812-53.523-0.812
	s-39.635,0.152-53.472,0.76c-13.785,0.607-23.263,2.839-31.474,6.031c-8.719,3.294-16.523,8.362-23.012,15.003
	c-6.589,6.488-11.706,14.344-14.951,22.96c-3.194,8.262-5.423,17.688-6.031,31.474c-0.66,13.889-0.812,18.298-0.812,53.523
	s0.152,39.634,0.76,53.472c0.608,13.785,2.839,23.263,6.033,31.476c3.295,8.717,8.412,16.521,15.001,23.01
	c6.488,6.589,14.345,11.709,22.961,14.952c8.262,3.192,17.688,5.422,31.476,6.03c13.835,0.609,18.246,0.76,53.471,0.76
	c35.226,0,39.635-0.15,53.472-0.76c13.786-0.608,23.264-2.838,31.475-6.03c17.436-6.742,31.222-20.528,37.963-37.962
	c3.191-8.262,5.423-17.69,6.03-31.476c0.608-13.838,0.761-18.246,0.761-53.472S511.747,341.664,511.14,327.827z M487.775,433.757
	c-0.559,12.671-2.687,19.513-4.461,24.074c-4.359,11.304-13.33,20.274-24.633,24.634c-4.562,1.773-11.453,3.902-24.075,4.459
	c-13.685,0.609-17.789,0.76-52.406,0.76c-34.618,0-38.773-0.15-52.408-0.76c-12.671-0.557-19.514-2.686-24.075-4.459
	c-5.625-2.079-10.744-5.373-14.9-9.682c-4.309-4.207-7.603-9.275-9.682-14.9c-1.773-4.562-3.902-11.455-4.458-24.075
	c-0.61-13.685-0.761-17.79-0.761-52.408c0-34.617,0.15-38.773,0.761-52.406c0.556-12.671,2.685-19.514,4.458-24.075
	c2.079-5.626,5.373-10.744,9.733-14.902c4.205-4.308,9.273-7.603,14.9-9.679c4.562-1.774,11.455-3.902,24.074-4.461
	c13.685-0.607,17.791-0.76,52.407-0.76c34.669,0,38.772,0.152,52.408,0.76c12.671,0.559,19.513,2.687,24.074,4.461
	c5.625,2.076,10.745,5.371,14.9,9.679c4.309,4.208,7.603,9.276,9.682,14.902c1.774,4.562,3.902,11.454,4.461,24.075
	c0.607,13.685,0.76,17.789,0.76,52.406C488.535,416.018,488.383,420.072,487.775,433.757z"/>
<path fill="#FFFFFF" d="M382.148,314.649c-36.795,0-66.649,29.852-66.649,66.649c0,36.797,29.854,66.649,66.649,66.649
	c36.798,0,66.65-29.853,66.65-66.649C448.799,344.501,418.946,314.649,382.148,314.649z M382.148,424.533
	c-23.871,0-43.233-19.361-43.233-43.234s19.362-43.234,43.233-43.234c23.873,0,43.234,19.361,43.234,43.234
	S406.021,424.533,382.148,424.533z"/>
<path fill="#FFFFFF" d="M466.995,312.014c0,8.593-6.967,15.56-15.562,15.56c-8.593,0-15.561-6.967-15.561-15.56
	c0-8.594,6.968-15.56,15.561-15.56C460.028,296.454,466.995,303.42,466.995,312.014z"/>
</svg>
