<?xml version="1.0" encoding="utf-8"?>
<!-- Generator: Adobe Illustrator 16.0.0, SVG Export Plug-In . SVG Version: 6.00 Build 0)  -->
<!DOCTYPE svg PUBLIC "-//W3C//DTD SVG 1.1//EN" "http://www.w3.org/Graphics/SVG/1.1/DTD/svg11.dtd">
<svg version="1.1" id="Layer_1" xmlns="http://www.w3.org/2000/svg" xmlns:xlink="http://www.w3.org/1999/xlink" x="0px" y="0px"
	 width="373px" height="626px" viewBox="119.5 81.5 373 626" enable-background="new 119.5 81.5 373 626" xml:space="preserve">
<g>
	<g>
		<path fill="#FFFFFF" d="M137.195,418.084l270.42,272.338c6.256,6.31,14.608,9.777,23.506,9.779
			c8.904-0.004,17.255-3.475,23.506-9.779l19.913-20.052c12.965-13.064,12.959-34.301,0.005-47.346L247.462,394.329l227.331-228.95
			c6.259-6.305,9.715-14.714,9.709-23.671c0.005-8.97-3.454-17.373-9.71-23.684l-19.905-20.046
			c-6.263-6.308-14.614-9.776-23.512-9.778c-8.903-0.006-17.256,3.475-23.508,9.78L137.198,370.57
			c-6.272,6.321-9.716,14.764-9.698,23.742C127.483,403.32,130.92,411.76,137.195,418.084z"/>
	</g>
</g>
</svg>
