<?xml version="1.0" encoding="utf-8"?>
<!-- Generator: Adobe Illustrator 16.0.0, SVG Export Plug-In . SVG Version: 6.00 Build 0)  -->
<!DOCTYPE svg PUBLIC "-//W3C//DTD SVG 1.1//EN" "http://www.w3.org/Graphics/SVG/1.1/DTD/svg11.dtd">
<svg version="1.1" id="Layer_1" xmlns="http://www.w3.org/2000/svg" xmlns:xlink="http://www.w3.org/1999/xlink" x="0px" y="0px"
	 width="276px" height="93.385px" viewBox="0 0 276 93.385" enable-background="new 0 0 276 93.385" xml:space="preserve">
<desc>Created by EvoPdf</desc>
<g>
	<g transform="matrix(1,0,0,1,0,0)">
	</g>
	<g transform="matrix(1,0,0,1,0,0)">
	</g>
	<g transform="matrix(1,0,0,1,0,0)">
	</g>
	<g transform="matrix(1,0,0,1,0,0)">
	</g>
	<g transform="matrix(1,0,0,1,8,8)">
	</g>
	<g transform="matrix(1,0,0,1,8,8)">
		<path vector-effect="none" fill="#FFFFFF" d="M-9.798-21.615h281.144c4.993,0,9.04,4.047,9.04,9.04v94.92
			c0,4.993-4.047,9.04-9.04,9.04H-9.798c-4.993,0-9.04-4.047-9.04-9.04v-94.92C-18.838-17.568-14.791-21.615-9.798-21.615"/>
	</g>
	<g transform="matrix(1,0,0,1,8,8)">
	</g>
	<g transform="matrix(1,0,0,1,8,8)">
	</g>
	<g transform="matrix(0.917197,0,0,0.917197,27.1745,94.7442)">
	</g>
	<g transform="matrix(0.917197,0,0,0.917197,27.1745,94.7442)">
		<path vector-effect="none" fill="#010101" d="M-17.863-26.064v9.527h3.056c0.843,0,1.602-0.216,2.277-0.652
			c0.639-0.422,1.139-0.987,1.501-1.699c0.362-0.71,0.542-1.49,0.542-2.332c0-0.879-0.171-1.689-0.514-2.423
			c-0.344-0.736-0.835-1.319-1.474-1.755c-0.687-0.445-1.477-0.667-2.368-0.667H-17.863L-17.863-26.064 M-20.865-26.064l-0.867-1.99
			h6.871c1.192,0,2.283,0.307,3.272,0.922c0.952,0.591,1.705,1.398,2.26,2.422c0.554,1.025,0.831,2.139,0.831,3.346
			c0,0.902-0.177,1.797-0.533,2.684c-0.356,0.885-0.847,1.66-1.474,2.322c-0.603,0.652-1.247,1.116-1.935,1.393
			c-0.663,0.265-1.453,0.397-2.368,0.397h-4.99v-11.497H-20.865L-20.865-26.064 M0.144-14.567H-1.79v-13.487h1.934V-14.567
			 M11.968-26.625l-0.741-1.664h2.169l6.491,13.722h-2.205l-0.886-1.97h-4.103c-0.772,0-1.465,0.072-2.079,0.217
			c-0.543,0.133-0.994,0.307-1.356,0.524c-0.325,0.193-0.542,0.392-0.651,0.596l-0.344,0.632H6.129L11.968-26.625 M13.415-18.526
			h2.495l-2.947-5.693L9.98-17.765c0.265-0.229,0.669-0.41,1.211-0.543C11.805-18.453,12.547-18.526,13.415-18.526L13.415-18.526
			 M37.57-23.84l-4.61,5.514l-4.574-5.514v9.274h-1.935v-11.587l-1.573-1.899h2.549l5.514,6.617l5.587-6.617h2.55l-1.573,1.899
			v11.587H37.57V-23.84 M59.176-21.4c0-0.965-0.248-1.839-0.742-2.622c-0.47-0.759-1.111-1.354-1.925-1.789
			c-0.813-0.433-1.696-0.652-2.648-0.652c-0.989,0-1.89,0.224-2.703,0.67c-0.813,0.444-1.45,1.054-1.907,1.826
			c-0.47,0.807-0.705,1.705-0.705,2.695c0,0.938,0.253,1.807,0.76,2.602c0.482,0.747,1.13,1.342,1.944,1.78
			c0.813,0.442,1.693,0.661,2.639,0.661c0.946,0,1.826-0.229,2.64-0.687c0.813-0.46,1.456-1.073,1.926-1.845
			C58.935-19.567,59.176-20.448,59.176-21.4L59.176-21.4 M61.128-21.291c0,1.301-0.338,2.501-1.013,3.598
			c-0.651,1.049-1.534,1.883-2.649,2.504c-1.114,0.621-2.317,0.931-3.606,0.931c-1.338,0-2.568-0.324-3.689-0.976
			c-1.097-0.626-1.958-1.49-2.585-2.586c-0.651-1.12-0.976-2.35-0.976-3.687c0-1.29,0.343-2.478,1.031-3.563
			c0.651-1.036,1.534-1.858,2.649-2.468c1.114-0.608,2.311-0.912,3.589-0.912c1.314,0,2.531,0.32,3.653,0.959
			c1.097,0.627,1.964,1.477,2.604,2.549C60.797-23.822,61.128-22.605,61.128-21.291L61.128-21.291 M68.234-26.154l-1.573-1.899
			h2.549l8.66,10.305v-10.305h1.988v13.487h-1.952l-7.738-9.274v9.274h-1.935V-26.154L68.234-26.154 M90.165-26.064v9.527h3.055
			c0.843,0,1.603-0.216,2.277-0.652c0.639-0.422,1.14-0.987,1.502-1.699c0.362-0.71,0.542-1.49,0.542-2.332
			c0-0.879-0.172-1.689-0.515-2.423c-0.344-0.736-0.835-1.319-1.474-1.755c-0.687-0.445-1.476-0.667-2.369-0.667H90.165
			L90.165-26.064 M87.163-26.064l-0.867-1.99h6.87c1.193,0,2.284,0.307,3.273,0.922c0.95,0.591,1.705,1.398,2.259,2.422
			c0.554,1.025,0.832,2.139,0.832,3.346c0,0.902-0.179,1.797-0.533,2.684c-0.357,0.885-0.848,1.66-1.475,2.322
			c-0.602,0.652-1.247,1.116-1.934,1.393c-0.663,0.265-1.452,0.397-2.368,0.397h-4.989v-11.497H87.163L87.163-26.064
			 M122.998-28.053v8.154c0,1.303-0.283,2.404-0.851,3.308c-0.493,0.785-1.167,1.381-2.024,1.791
			c-0.748,0.362-1.543,0.542-2.387,0.542c-0.808,0-1.628-0.138-2.46-0.415c-0.867-0.302-1.579-0.693-2.133-1.175l0.994-1.736
			l0.217,0.216c0.192,0.169,0.415,0.326,0.67,0.471c0.337,0.205,0.711,0.362,1.12,0.472c0.507,0.144,1.042,0.216,1.609,0.216
			c0.614,0,1.151-0.133,1.609-0.398c0.386-0.217,0.711-0.524,0.976-0.922c0.217-0.314,0.386-0.681,0.506-1.103
			c0.085-0.301,0.144-0.608,0.181-0.922l0.018-0.398v-6.109h-2.875l-0.869-1.99H122.998L122.998-28.053 M132.581-19.971v3.435h8.317
			v1.97h-10.286v-13.487h9.491v1.99h-7.521v4.085c0.373-0.216,0.789-0.363,1.248-0.434c0.336-0.061,0.77-0.09,1.301-0.09h2.947
			v2.006h-2.947c-0.494,0-0.928,0.031-1.301,0.093C133.37-20.321,132.954-20.177,132.581-19.971 M162.538-28.053h2.079
			l-4.303,13.487h-2.133l-2.604-7.973l-2.531,7.973h-2.134l-4.573-13.487h2.024l3.58,10.088l2.53-7.955l-0.686-2.134h2.025
			l3.399,10.088L162.538-28.053 M172.845-19.971v3.435h8.315v1.97h-10.286v-13.487h9.492v1.99h-7.521v4.085
			c0.374-0.216,0.79-0.363,1.248-0.434c0.336-0.061,0.771-0.09,1.301-0.09h2.947v2.006h-2.947c-0.494,0-0.927,0.031-1.301,0.093
			C173.635-20.321,173.218-20.177,172.845-19.971L172.845-19.971 M197.414-14.567h-9.455v-13.487h1.97v11.517h7.485V-14.567
			L197.414-14.567 M212.857-14.567H203.4v-13.487h1.97v11.517h7.487V-14.567 M220.811-19.971v3.435h8.315v1.97H218.84v-13.487h9.492
			v1.99h-7.52v4.085c0.373-0.216,0.789-0.363,1.246-0.434c0.338-0.061,0.772-0.09,1.302-0.09h2.947v2.006h-2.947
			c-0.493,0-0.927,0.031-1.302,0.093C221.6-20.321,221.184-20.177,220.811-19.971 M237.896-26.083v4.484
			c0.374-0.216,0.79-0.36,1.248-0.433c0.338-0.061,0.772-0.092,1.302-0.092h2.567c0.711,0,1.265-0.161,1.663-0.487
			c0.423-0.35,0.632-0.875,0.632-1.574c0-0.663-0.224-1.157-0.668-1.483c-0.386-0.276-0.928-0.415-1.628-0.415H237.896
			L237.896-26.083 M243.665-16.698l-1.646-3.454h-1.573c-0.495,0-0.928,0.03-1.302,0.089c-0.458,0.085-0.874,0.23-1.248,0.433v5.063
			h-1.97v-13.487h7.087c0.832,0,1.567,0.157,2.205,0.471c0.64,0.313,1.134,0.758,1.484,1.338c0.373,0.613,0.559,1.337,0.559,2.169
			c0,1.013-0.27,1.844-0.813,2.495c-0.543,0.651-1.307,1.103-2.296,1.355l1.049,2.152c0.3,0.446,0.537,0.76,0.704,0.941
			c0.207,0.229,0.401,0.382,0.589,0.46c0.187,0.08,0.431,0.118,0.733,0.118h0.198l0.434-0.018v2.006
			c-0.698,0-1.218-0.023-1.555-0.071c-0.566-0.096-1.05-0.283-1.447-0.561C244.387-15.537,243.991-16.036,243.665-16.698
			L243.665-16.698 M259.213-22.124c0.807-0.843,1.536-1.783,2.187-2.819c0.652-1.037,1.17-2.074,1.556-3.11h2.259
			c-0.613,1.435-1.361,2.808-2.241,4.123c-0.795,1.192-1.724,2.368-2.784,3.526v5.838h-1.953v-5.838
			c-1.059-1.158-1.989-2.334-2.785-3.526c-0.878-1.315-1.627-2.687-2.241-4.123h2.259c0.386,1.036,0.904,2.073,1.557,3.11
			C257.675-23.907,258.406-22.967,259.213-22.124L259.213-22.124"/>
	</g>
	<g transform="matrix(0.917197,0,0,0.917197,27.1745,94.7442)">
	</g>
	<g transform="matrix(1,0,0,1,8,8)">
	</g>
	<g transform="matrix(2.41287,0,0,2.41287,94.8284,20.7426)">
	</g>
	<g transform="matrix(2.41287,0,0,2.41287,94.8284,20.7426)">
		<path vector-effect="none" fill="#010101" d="M-6.579-2.884v9.528h3.055c0.844,0,1.603-0.217,2.278-0.651
			c0.639-0.422,1.139-0.988,1.501-1.699c0.362-0.712,0.543-1.489,0.543-2.332c0-0.88-0.172-1.688-0.516-2.423
			c-0.343-0.735-0.834-1.32-1.473-1.754C-1.878-2.661-2.668-2.884-3.56-2.884H-6.579L-6.579-2.884 M-9.581-2.884l-0.868-1.989h6.871
			c1.193,0,2.284,0.307,3.272,0.922C0.647-3.36,1.4-2.553,1.955-1.528c0.554,1.024,0.832,2.139,0.832,3.345
			c0,0.904-0.178,1.799-0.533,2.685C1.897,5.388,1.406,6.162,0.779,6.825C0.177,7.476-0.468,7.94-1.155,8.217
			c-0.663,0.265-1.452,0.398-2.368,0.398h-4.99V-2.884H-9.581L-9.581-2.884 M7.794,8.615H5.86V-4.873h1.935V8.615 M23.289-0.66
			l-4.61,5.515L14.104-0.66v9.275H12.17V-2.975l-1.573-1.898h2.549l5.514,6.617l5.587-6.617h2.549l-1.573,1.898V8.615h-1.935V-0.66"
			/>
	</g>
	<g transform="matrix(2.41287,0,0,2.41287,94.8284,20.7426)">
	</g>
	<g transform="matrix(1,0,0,1,8,8)">
	</g>
	<g transform="matrix(0.490016,0,0,0.490016,201,26.4803)">
	</g>
	<g transform="matrix(0.490016,0,0,0.490016,201,26.4803)">
		<path vector-effect="none" fill="#010101" d="M-31.13,30.711l-45.128-43.825l23.078-22.59h44.243l23.082,22.592L-31.13,30.711
			 M-69.637-13.127l38.511,37.401L7.521-13.13l-18.343-17.952h-40.47L-69.637-13.127"/>
	</g>
	<g transform="matrix(0.490016,0,0,0.490016,201,26.4803)">
	</g>
	<g transform="matrix(1,0,0,1,8,8)">
	</g>
	<g transform="matrix(1,0,0,1,8,8)">
	</g>
	<g transform="matrix(1,0,0,1,0,0)">
	</g>
	<g transform="matrix(1,0,0,1,0,0)">
	</g>
	<g transform="matrix(1,0,0,1,0,0)">
	</g>
	<g transform="matrix(1,0,0,1,0,0)">
	</g>
	<g transform="matrix(1,0,0,1,8,8)">
	</g>
	<g transform="matrix(1,0,0,1,8,8)">
	</g>
	<g transform="matrix(1,0,0,1,8,8)">
	</g>
	<g transform="matrix(1,0,0,1,8,8)">
	</g>
	<g transform="matrix(1,0,0,1,8,8)">
	</g>
	<g transform="matrix(1,0,0,1,8,8)">
	</g>
	<g transform="matrix(1,0,0,1,0,0)">
	</g>
	<g transform="matrix(1,0,0,1,0,0)">
	</g>
	<g transform="matrix(1,0,0,1,0,0)">
	</g>
	<g transform="matrix(1,0,0,1,0,0)">
	</g>
	<g transform="matrix(1,0,0,1,0,0)">
	</g>
	<g transform="matrix(1,0,0,1,0,0)">
	</g>
</g>
</svg>
