<?xml version="1.0" encoding="utf-8"?>
<!-- Generator: Adobe Illustrator 16.0.0, SVG Export Plug-In . SVG Version: 6.00 Build 0)  -->
<!DOCTYPE svg PUBLIC "-//W3C//DTD SVG 1.1//EN" "http://www.w3.org/Graphics/SVG/1.1/DTD/svg11.dtd">
<svg version="1.1" id="Layer_1" xmlns="http://www.w3.org/2000/svg" xmlns:xlink="http://www.w3.org/1999/xlink" x="0px" y="0px"
	 width="373px" height="626px" viewBox="119.5 81.5 373 626" enable-background="new 119.5 81.5 373 626" xml:space="preserve">
<g>
	<g>
		<path fill="#FFFFFF" d="M474.808,372.12L204.386,99.777C198.13,93.473,189.782,90,180.879,90c-8.903,0-17.252,3.473-23.506,9.777
			l-19.916,20.052c-12.958,13.066-12.958,34.301,0,47.347l227.081,228.697L137.207,624.824c-6.255,6.304-9.708,14.707-9.708,23.668
			c0,8.972,3.453,17.375,9.708,23.685l19.914,20.046c6.261,6.305,14.605,9.777,23.506,9.777c8.903,0,17.253-3.473,23.507-9.777
			l270.674-272.591c6.27-6.324,9.714-14.768,9.693-23.744C484.521,386.877,481.077,378.438,474.808,372.12z"/>
	</g>
</g>
</svg>
